<svg width="24" height="24" viewBox="0 0 24 24" fill="none" xmlns="http://www.w3.org/2000/svg">
<rect width="24" height="24" fill="white"/>
<g clip-path="url(#clip0_1_83)">
<path d="M10.9287 12C10.9287 12.2842 11.0416 12.5567 11.2425 12.7576C11.4434 12.9585 11.716 13.0714 12.0001 13.0714C12.2843 13.0714 12.5568 12.9585 12.7577 12.7576C12.9587 12.5567 13.0716 12.2842 13.0716 12C13.0716 11.7158 12.9587 11.4433 12.7577 11.2424C12.5568 11.0415 12.2843 10.9286 12.0001 10.9286C11.716 10.9286 11.4434 11.0415 11.2425 11.2424C11.0416 11.4433 10.9287 11.7158 10.9287 12V12ZM15.393 12C15.393 12.2842 15.5059 12.5567 15.7068 12.7576C15.9077 12.9585 16.1803 13.0714 16.4644 13.0714C16.7486 13.0714 17.0211 12.9585 17.222 12.7576C17.423 12.5567 17.5358 12.2842 17.5358 12C17.5358 11.7158 17.423 11.4433 17.222 11.2424C17.0211 11.0415 16.7486 10.9286 16.4644 10.9286C16.1803 10.9286 15.9077 11.0415 15.7068 11.2424C15.5059 11.4433 15.393 11.7158 15.393 12ZM6.46441 12C6.46441 12.2842 6.57729 12.5567 6.77823 12.7576C6.97916 12.9585 7.25168 13.0714 7.53584 13.0714C7.82 13.0714 8.09252 12.9585 8.29346 12.7576C8.49439 12.5567 8.60727 12.2842 8.60727 12C8.60727 11.7158 8.49439 11.4433 8.29346 11.2424C8.09252 11.0415 7.82 10.9286 7.53584 10.9286C7.25168 10.9286 6.97916 11.0415 6.77823 11.2424C6.57729 11.4433 6.46441 11.7158 6.46441 12V12ZM21.2233 8.125C20.7189 6.92634 19.9957 5.85045 19.0738 4.92634C18.1584 4.00758 17.0716 3.27728 15.8751 2.77679C14.6474 2.26116 13.3439 2 12.0001 2H11.9555C10.6028 2.0067 9.29254 2.27455 8.06039 2.80134C6.87414 3.30697 5.79759 4.03857 4.89075 4.95536C3.97781 5.87723 3.26129 6.94866 2.76575 8.14286C2.25236 9.37946 1.99343 10.6942 2.00013 12.0469C2.0077 13.597 2.37444 15.1243 3.07156 16.5089V19.9018C3.07156 20.1741 3.17973 20.4353 3.37229 20.6278C3.56485 20.8204 3.82602 20.9286 4.09834 20.9286H7.49343C8.87802 21.6257 10.4053 21.9924 11.9555 22H12.0024C13.3394 22 14.6363 21.7411 15.8573 21.2344C17.0477 20.7398 18.1304 20.0181 19.0448 19.1094C19.9666 18.1964 20.6921 17.1295 21.1988 15.9397C21.7256 14.7076 21.9934 13.3973 22.0001 12.0446C22.0068 10.6853 21.7434 9.36607 21.2233 8.125V8.125ZM17.8506 17.9018C16.2858 19.4509 14.2099 20.3036 12.0001 20.3036H11.9622C10.6162 20.2969 9.27915 19.9621 8.09834 19.3326L7.91084 19.2321H4.76798V16.0893L4.66754 15.9018C4.03807 14.721 3.70325 13.3839 3.69656 12.0379C3.68763 9.8125 4.53807 7.72321 6.09834 6.14955C7.65638 4.57589 9.73897 3.70536 11.9644 3.69643H12.0024C13.1184 3.69643 14.201 3.91295 15.2211 4.34152C16.2166 4.75893 17.1095 5.35937 17.8774 6.12723C18.643 6.89286 19.2457 7.78795 19.6631 8.78348C20.0961 9.81473 20.3126 10.9085 20.3082 12.0379C20.2948 14.2612 19.422 16.3438 17.8506 17.9018V17.9018Z" fill="#606060"/>
</g>
<defs>
<clipPath id="clip0_1_83">
<rect width="20" height="20" fill="white" transform="translate(2 2)"/>
</clipPath>
</defs>
</svg>
